<svg xmlns="http://www.w3.org/2000/svg" viewBox="0 0 400 500"><defs><style>.cls-1{fill:#fff;}.cls-2{fill:none;stroke:#fff;stroke-miterlimit:10;stroke-width:4px;}</style></defs><title>アートボード 1</title><g id="powered_by" data-name="powered by"><path class="cls-1" d="M48.62,462.71V438.5h5.2a7.76,7.76,0,0,1,2.52.38,4.8,4.8,0,0,1,2,1.32,5.14,5.14,0,0,1,1.22,2.23,13.76,13.76,0,0,1,.34,3.45,17.72,17.72,0,0,1-.18,2.75,5.83,5.83,0,0,1-.8,2.11A5,5,0,0,1,57,452.59a6.28,6.28,0,0,1-3.12.67H52.09v9.45Zm3.47-20.95V450h1.66a3.64,3.64,0,0,0,1.64-.3,2,2,0,0,0,.85-.85,3.07,3.07,0,0,0,.32-1.26c0-.5,0-1.05,0-1.67s0-1.1,0-1.61a3.62,3.62,0,0,0-.31-1.34,1.91,1.91,0,0,0-.82-.89,3.26,3.26,0,0,0-1.56-.31Z"/><path class="cls-1" d="M62,451.25a13,13,0,0,1,.13-1.94,4.62,4.62,0,0,1,.51-1.56,4.68,4.68,0,0,1,1.76-1.8,6,6,0,0,1,5.54,0,4.6,4.6,0,0,1,2.26,3.36,13,13,0,0,1,.13,1.94v5.68a13,13,0,0,1-.13,1.94,4.6,4.6,0,0,1-2.26,3.36,6,6,0,0,1-5.54,0,4.68,4.68,0,0,1-1.76-1.8,4.62,4.62,0,0,1-.51-1.56,13,13,0,0,1-.13-1.94Zm3.47,6.22a2.08,2.08,0,0,0,.46,1.48,1.59,1.59,0,0,0,1.24.5,1.62,1.62,0,0,0,1.24-.5,2.13,2.13,0,0,0,.46-1.48v-6.76a2.13,2.13,0,0,0-.46-1.48,1.61,1.61,0,0,0-1.24-.49,1.58,1.58,0,0,0-1.24.49,2.08,2.08,0,0,0-.46,1.48Z"/><path class="cls-1" d="M91.6,445.47l-4.08,17.24H84.46l-1.91-10.24h-.07l-1.9,10.24H77.52l-4.08-17.24h3.67l2.11,10.71h.07l1.94-10.71H84l1.83,10.71h.07l2.07-10.71Z"/><path class="cls-1" d="M103.09,455.4H96.22v2.35a1.63,1.63,0,0,0,.46,1.25,1.69,1.69,0,0,0,1.24.45,1.38,1.38,0,0,0,1.31-.58,3.32,3.32,0,0,0,.39-1.16h3.47a5,5,0,0,1-1.4,3.67,4.7,4.7,0,0,1-1.63,1.12,5.9,5.9,0,0,1-4.91-.27,4.6,4.6,0,0,1-2.26-3.36,12.91,12.91,0,0,1-.14-1.94v-5.68a12.91,12.91,0,0,1,.14-1.94A4.6,4.6,0,0,1,95.15,446a5.24,5.24,0,0,1,2.77-.68,5.58,5.58,0,0,1,2.16.4,4.94,4.94,0,0,1,1.65,1.13,5.6,5.6,0,0,1,1.36,3.84Zm-6.87-2.72h3.4v-2a2.08,2.08,0,0,0-.46-1.48,1.81,1.81,0,0,0-2.48,0,2.08,2.08,0,0,0-.46,1.48Z"/><path class="cls-1" d="M105.64,462.71V445.47h3.47v1.84a10.14,10.14,0,0,1,2.07-1.5,5.34,5.34,0,0,1,2.52-.54v3.67a2.77,2.77,0,0,0-1.06-.2,4.28,4.28,0,0,0-1.17.18,3.2,3.2,0,0,0-1.14.63,3.25,3.25,0,0,0-.88,1.16,4,4,0,0,0-.34,1.76v10.24Z"/><path class="cls-1" d="M125.12,455.4h-6.87v2.35a1.67,1.67,0,0,0,.46,1.25,1.7,1.7,0,0,0,1.24.45,1.37,1.37,0,0,0,1.31-.58,3,3,0,0,0,.39-1.16h3.47a5,5,0,0,1-1.39,3.67,4.83,4.83,0,0,1-1.64,1.12,5.9,5.9,0,0,1-4.91-.27,4.6,4.6,0,0,1-2.26-3.36,12.91,12.91,0,0,1-.14-1.94v-5.68a12.91,12.91,0,0,1,.14-1.94,4.6,4.6,0,0,1,2.26-3.36,5.24,5.24,0,0,1,2.77-.68,5.51,5.51,0,0,1,2.16.4,4.85,4.85,0,0,1,1.65,1.13,5.55,5.55,0,0,1,1.36,3.84Zm-6.87-2.72h3.4v-2a2.08,2.08,0,0,0-.46-1.48,1.81,1.81,0,0,0-2.48,0,2.13,2.13,0,0,0-.46,1.48Z"/><path class="cls-1" d="M134.57,462.71v-1.57l-.64.7a3.38,3.38,0,0,1-1.53.94,4.23,4.23,0,0,1-1.13.13,3.09,3.09,0,0,1-3-1.63,4.38,4.38,0,0,1-.44-1.43,14.93,14.93,0,0,1-.14-2.27V451a26.15,26.15,0,0,1,.1-2.75,3.31,3.31,0,0,1,1.6-2.55,3.5,3.5,0,0,1,1.94-.44,3.57,3.57,0,0,1,1.82.46A4.06,4.06,0,0,1,134.5,447h.07V438.5H138v24.21Zm-3.43-5.61a3.08,3.08,0,0,0,.41,1.7,1.41,1.41,0,0,0,1.29.65,1.54,1.54,0,0,0,1.26-.6,2.45,2.45,0,0,0,.47-1.55v-6.69a1.89,1.89,0,0,0-.49-1.35,1.62,1.62,0,0,0-1.24-.52,1.4,1.4,0,0,0-1.34.61,2.74,2.74,0,0,0-.36,1.43Z"/><path class="cls-1" d="M147.22,462.71V438.5h3.47V447h.07a4.06,4.06,0,0,1,1.37-1.31,3.57,3.57,0,0,1,1.82-.46,3.72,3.72,0,0,1,2,.44,3.8,3.8,0,0,1,1.14,1.12,3.55,3.55,0,0,1,.44,1.43,26.15,26.15,0,0,1,.1,2.75v6.57a14.93,14.93,0,0,1-.14,2.27,4.38,4.38,0,0,1-.44,1.43,3.15,3.15,0,0,1-3,1.63,3.27,3.27,0,0,1-2-.51,8.58,8.58,0,0,1-1.32-1.26v1.57Zm6.9-11.93a2.74,2.74,0,0,0-.36-1.43,1.4,1.4,0,0,0-1.34-.61,1.62,1.62,0,0,0-1.24.52,1.89,1.89,0,0,0-.49,1.35v6.69a2.45,2.45,0,0,0,.47,1.55,1.54,1.54,0,0,0,1.26.6,1.41,1.41,0,0,0,1.29-.65,3.08,3.08,0,0,0,.41-1.7Z"/><path class="cls-1" d="M159,445.47h3.68L165,456.21h.06l2.35-10.74H171l-5,20.23a6.14,6.14,0,0,1-.77,1.91,5,5,0,0,1-1.14,1.22,3.82,3.82,0,0,1-1.38.66,5.79,5.79,0,0,1-1.51.19h-.95v-3.26h.78a2.64,2.64,0,0,0,.89-.14,1.53,1.53,0,0,0,.68-.61,6.2,6.2,0,0,0,.51-1.35c.15-.57.33-1.37.54-2.39Z"/><path class="cls-1" d="M271.68,448.65c-2.36-.52-3.22.53-3.35,1.12s1.51.46,2.17,1.58-1.18,5.18-2.17,7.15-4.6,5.06-4.6,5.06,2-7.42,2.76-10.64-1.19-4.05-3.41-3.81c-3,.33-3.69,1.07-4.68,2.06s-2.35,3.07-1.82,4.05,1.64.53,2-.33.92-2.3,1.58-1.84,0,2.43-.59,6.24-1.81,9.24-1.81,9.44a39.43,39.43,0,0,1-6.08,4.6c-3.09,2-11.1,6.07-12.48,6.13s-1.49-.6-1.36-1.79a1.63,1.63,0,0,0-1.32-2,2.18,2.18,0,0,0-2.23,1.11c-.39.72-1,3.94,5.12,3.81,2.29-.05,6.44-2.15,9.54-3.78a69.26,69.26,0,0,0,13.51-9.35c6.3-5.52,9.71-12.54,10.11-14.18S274,449.18,271.68,448.65Z"/><path class="cls-1" d="M339.24,408.48c-15,0-24.78,2-41,9.21-19.21,8.58-41.49,30.36-41.49,30.36s-1.07-1.95-.57-10.1c.41-6.81,2.95-20.09,2.95-20.09s-16.44,28.76-26.29,38c-13,12.2-16.83,13.28-22.35,15.74-9.06,4-18.92,4.41-22.07,1.29-2.46-2.43-2.05-6.24-.39-9.88,7-15.23,28.75-24.68,28.75-24.68s-14.4,6-21.17,11.52c-8.17,6.6-11.16,12.07-12.45,15.57-1.08,2.95-1.44,10.33,5.18,12.72,11.16,4,27.38-6.8,34.84-11.94,8.87-6.11,22.85-22.57,22.85-22.57l-.29,25.23s5.32-11,11.63-18c5.57-6.17,23.48-23.1,41.59-30.45,12.24-5,24.23-7.38,33.64-7.38,15.27,0,24.31,3.35,26.52,9.36,2,5.54-1.36,11.22-6.89,16a203.43,203.43,0,0,1-18.38,13.59s-1.05-3.07-6-3.06a14.08,14.08,0,0,0-6.76,1.48c-2.61,1.25-10.21,6.91-12.67,8.39s-.24-1.51,1.77-5c2.39-4.12.31-5.81-3.51-5.78-3.36,0-4.48,1.57-4.48,1.57l5.65-9.14a37.91,37.91,0,0,0,5.53-5.63c2.85-3.54,4.43-6.69,2.56-7.19s-6.21,4.53-8.28,6.78a98,98,0,0,0-6.1,8.39l-11.08,8.62s-.71-2.48-4.33-2.61c-4.63-.17-9.29,1.13-13.25,7.09-3.8,5.71-.69,9.37,3.05,9.45,4.53.1,9.54-1.28,12.86-6.37,2.65-4.07,1.91-6.58,1.91-6.58L300,445l-12.9,20.12h5.58a61.8,61.8,0,0,1,3.78-6.41c2.46-3.86,4.48-6.12,7.24-6.12s-.07,3-1.63,5.61c-2.36,3.94-4.13,6.92-1.77,6.92s3.52-.84,6.15-2.81S318,452.94,318,452.94a11.48,11.48,0,0,0-3.37,4.27c-2.22,4.38.15,8,4.28,8s8.86-.59,12.84-5.93c3.17-4.25,2.36-6.7,2.36-6.7s28.63-15.23,29.68-26.79C364.79,415.15,354.21,408.48,339.24,408.48Zm-27.9,26.1c1-1.05,2.27-2.86,2.61-2.59s-.64,1.61-1.79,3.11a32.15,32.15,0,0,1-3.87,4A50.68,50.68,0,0,1,311.34,434.58Zm-27.26,22.48c-1.85,2.86-4.75,5.17-6.46,5.17s-1.6-2.31.26-5.17,4.74-5.17,6.46-5.17S285.94,454.2,284.08,457.06Zm42.65,0c-1.85,2.86-4.74,5.17-6.46,5.17s-1.6-2.31.26-5.17,4.74-5.17,6.46-5.17S328.59,454.2,326.73,457.06Z"/></g><g id="circle"><circle class="cls-2" cx="200.54" cy="200" r="193.5"/></g><g id="handwriting_washipo" data-name="handwriting washipo"><path class="cls-1" d="M217.3,343c0,.26.09.52.14.77a54.58,54.58,0,0,1,.68,7.33,66,66,0,0,0,1.13,7.22l2.63,16.17c1.45-1.78,1.88-4.15,2.23-6.41.83-5.41,1.88-11,2-16.48.17-5.93.06-11.9,1-17.77.24-1.43.52-2.84.81-4.26.49-2.41,1.48-4.79,1.65-7.23.19-2.76.06-5.56,0-8.32-.07-3.26.84-6.65,1.19-9.88.2-1.88.63-2.6,2.49-2.94a21.63,21.63,0,0,1,3.49-.44c3.52-.06,7-1.12,10.54-.48a12.08,12.08,0,0,0,2.68.22c1.8-.08,3.59-.27,5.39-.43a5.75,5.75,0,0,0,2.32-.36,13.84,13.84,0,0,0,2.68-2.4c1-1.09.54-4.13-.82-4.78a33.3,33.3,0,0,0-4-1.57c-.62-.21-1.36-.1-2-.35-1.4-.55-2.74-1.25-4.12-1.85-.82-.36-1.68-.62-2.5-1-1.52-.61-2.91-1.65-4.69-1.32a1.57,1.57,0,0,1-.51-.09,2.66,2.66,0,0,0-2.53.43,3.65,3.65,0,0,1-2.34.95,15.06,15.06,0,0,0-5.53,1.23,1.69,1.69,0,0,1-2.31-1.5c-.08-1.17-.32-2.33-.42-3.49a16.85,16.85,0,0,1-.18-4.06,4.39,4.39,0,0,0-1.1-4.18c-.81-.81-1.58-1.68-2.44-2.43a21.18,21.18,0,0,0-7.76-4.63,26.09,26.09,0,0,0-3.22-.57c-.78-.15-1.71-.47-2.13.41a2.72,2.72,0,0,0,0,2.06c.46.92-.29,1.05-.67,1.37-.15.12-.66,0-.89-.22-4.06-3.16-10.49-3.95-15.36-5.42a21.76,21.76,0,0,1-3.14-1.13c-4.94-2.4-6.53-7.08-8.58-11.77a30.52,30.52,0,0,1-2.42-7.86c-.7-4.62-.24-9.36-.49-14a121.08,121.08,0,0,0-1.51-13.48,44.38,44.38,0,0,0-2.51-9.4c-1.22-3-2.6-6-3.82-9-.84-2.08-1.71-4.19-2.41-6.32a28.15,28.15,0,0,1-1-4.46c-.13-.83-.24-1.67-.32-2.5a3.44,3.44,0,0,1,.68-2,3.82,3.82,0,0,1,.87-.88c.81-.72,1.64-1.44,2.49-2.12a34.15,34.15,0,0,1,3.62-2.6,69.08,69.08,0,0,1,7.26-3.61,55.1,55.1,0,0,0,7.46-4c4.27-2.86,9.35-4.37,13.57-7.22s7.86-6.09,12.11-8.73c3.24-2,7.31-3.47,9.88-6.36a6.3,6.3,0,0,0,1.5-2.5,8.69,8.69,0,0,0-.34-4.45,4,4,0,0,0-.77-1.75,3.53,3.53,0,0,0-1.36-.8c-6.27-2.38-13-4.07-19.24-6.65,2.16-3,5-5.06,7.68-7.42a84.4,84.4,0,0,0,13.21-14.64c2.8-3.87,6.62-8.77,5-13.87-1-3.09-3.78-5.16-6.42-7-3.39-2.39-5.81-3.71-10-4.06-4-.33-8,.28-12,.55a101,101,0,0,0-17.17,2.43A49.59,49.59,0,0,0,176,92.61c-3,1.55-6.12,3.08-9,4.9q-7.45,4.71-14.69,9.77c-2.48,1.73-4.9,3.54-7.32,5.36-1.19.89-2.36,1.83-3.58,2.68-.3.21-3,1.44-2.69,1.9a11.52,11.52,0,0,1-1.2-3.53,20.9,20.9,0,0,1-.6-3.38c.08-.55,2-3.17,2.62-4.27s2.18-3.66,2.67-4.44c2.63-4.16,4.05-6.65,6.62-10.83,1.15-1.88,1.85-4.21,4.36-4.81,1.27-.31,2.44-1.08,2.28-2.22-.19-1.43-.33-3.27-2.35-3.77a10.37,10.37,0,0,1-3.23-1,2.08,2.08,0,0,0-2.58.09,7.23,7.23,0,0,1-3.4,1c0-2.08-.29-4.1-.28-6.19a56.08,56.08,0,0,1,.43-6.47,18.83,18.83,0,0,0-.9-7.41c-.29-1-.58-2-.9-3a17.55,17.55,0,0,0-.89-2.74,20.18,20.18,0,0,0-2.06-3.48c-.94-1.12-1.76-2.35-2.69-3.49-3.57-4.39-9.55-7.46-15-8.76-1.12-.27-2.15-.81-3.25-1.11a15.68,15.68,0,0,0-3.6-.61c.26,0,.58.59.71.76a8.24,8.24,0,0,0,.87.9,50.72,50.72,0,0,1,6.78,8.12c1.73,2.58,3.93,4.84,5.43,7.57,3.1,5.64,2.74,11.79,2.12,17.9a30.21,30.21,0,0,1-.64,4.14c-.51,2.17-1,4.33-1.38,6.52a5.79,5.79,0,0,1-.63,2,2,2,0,0,1-.27.24,25.19,25.19,0,0,1-3.41,1.8c-1.23.63-2.44,1.3-3.61,2a80.1,80.1,0,0,0-17.58,14.88,43,43,0,0,0-5.32,8.8,21.37,21.37,0,0,0-1.88,8,13.15,13.15,0,0,0,.5,5.29,9.33,9.33,0,0,0,1.16,2.32c.27.39.57.79.87,1.17s.67.54.74,1-1.29,1.05-1.52,1.23a12,12,0,0,0-2.56,2.36,13.24,13.24,0,0,0-1.67,3.29C92,141,92.07,143.36,95,145.8a11.51,11.51,0,0,1,2.32,2.51c1.15,1.78,2.19,3.63,3.16,5.51,1.22,2.36,5.59,2,6.77-.26.26-.5.39-1.07.65-1.58a7.06,7.06,0,0,1,1.55-1.81c.74.57,1.61.82,2.37,1.34a22.49,22.49,0,0,1,2.4,1.69c1.4,1.18,3.1,2.19,4,3.67,2.71,4.32,5.49,8.55,9.48,11.77,1.62,1.31,4.85,4.14,7.06,4a5.27,5.27,0,0,0,1.67-.5c2.68-1.15,5.46-3,6.29-6a10.86,10.86,0,0,0,.26-2.61c.15-7.94.46-15.49-.93-23.4a15.27,15.27,0,0,0-.75-3.38c-.29-1.16-.66-2.31-.88-3.48-.45-2.3-.83-4.62-1.21-6.94a1.42,1.42,0,0,1,0-.58,1.36,1.36,0,0,1,.26-.45c2.18-2.88,5.31-4.27,7.79-6.73a42,42,0,0,1,7-5.26c2.7-1.75,5.37-3.48,7.9-5.46a32.41,32.41,0,0,1,4.51-2.5l3.21-1.76c.81-.43,1.46-1.07,2.25-1.48,2.21-1.16,4.63-2,6.89-3.07a34,34,0,0,1,10.54-3.18c2.41-.3,4.56-1.11,7-1.32,1.62-.14,3.43-.39,5.29-.62A30.46,30.46,0,0,1,214.77,95a1.93,1.93,0,0,1,1.62,2c.62,5-1.72,9.88-4.19,14.28a94.91,94.91,0,0,1-7.42,12.08c-3.12,4-6.94,7.78-9.35,12.27a3.17,3.17,0,0,0-.46,2.65c1.13,2.69,5.82,2.33,8.16,2.44,4.58.21,9.16.53,13.73.8,1,.06,2.21.4,2.22,1.36a1.92,1.92,0,0,1-.76,1.28c-2.76,2.71-5.32,6.13-8.38,8.45-6.24,4.74-12,10-19,13.66-5.27,2.74-10.64,5.37-15.49,8.83-3.65,2.6-7.55,4.43-8.56,9-.61,2.72.33,6.11.81,8.78q.51,2.79,1.12,5.56c.2.92.42,1.84.65,2.76.67,2.6,1.75,5.15,2.41,7.79a63,63,0,0,1,1.8,11c.13,1.71.23,3.43.33,5.15.24,4.3-1.1,8.39-1,12.69a37.24,37.24,0,0,0,2.9,12.89c1.52,3.92,3.07,8.28,6,11.51,3.13,3.45,8.39,5.39,12.67,6.93,2.72,1,5.46,1.92,8.25,2.65,4.52,1.19.67,7.41-.94,9.29a73.53,73.53,0,0,1-5.55,5.87c-3.38,3.13-5,7.37-9,9.93-1.14.74-2.48,1.46-2.57,3-.08,1.28,1,2.31,2,3.14s2.41,1.52,3.14,2.62c.93,1.41,1.59,3,2.56,4.38s3.8,1.7,5.4,1a22.94,22.94,0,0,1,2.57-1.3c3.72-1.17,7.45-2.27,11.19-3.36,2-.58,2.14-.27,2.72,1.4a14.89,14.89,0,0,1,.39,4c.21,3.71.64,7.4,1.19,11.07a52.07,52.07,0,0,1,.09,5.31A118.46,118.46,0,0,0,217.3,343Zm-108-218.54a.24.24,0,0,1-.18.05.33.33,0,0,1-.11-.09,7.34,7.34,0,0,1-1.32-2,10.6,10.6,0,0,1-.63-2.35,8.28,8.28,0,0,1,.85-5,59.78,59.78,0,0,1,6-8.63l6.35-6,3.11-2.9a18.94,18.94,0,0,1,1.46-1.38,7,7,0,0,1,2-.8c0,1.59.07,3.17.07,4.76,0,1.77,0,3.53,0,5.29a4.57,4.57,0,0,1-1.26,3.7C123.76,110.93,110.56,123.72,109.25,124.46Zm20,23.55c-.29,1.66-2.52,2-3.8,1.48a11.42,11.42,0,0,1-3.18-2.31,26.17,26.17,0,0,1-2.29-2.74.33.33,0,0,1-.07-.13.25.25,0,0,1,0-.12,13.73,13.73,0,0,1,3.81-4q2.19-1.82,4.41-3.59c.37-.29,1.1-.56,1.39-.39a2,2,0,0,1,.73,1.39C130.71,141.16,129.83,144.58,129.24,148Zm78,134.2,1.23-1.42c1.76-2,3.51-4.51,3-7.33,0-.23-.12-.46-.18-.69a4.57,4.57,0,0,0,.62.22c.09,0,.21,0,.31,0l.71.17c-.32,1.1,1.06,1.47,1,2.5s.15,2.09.19,3.13c.09,2.16.09,4.32.25,6.48.13,1.8.49,3.59.62,5.4a2,2,0,0,1-1.39,2.07c-1.31.5-2.67.9-4,1.36a4.14,4.14,0,0,0-.71.44c-2.76.84-5.31,1.68-7.86,2.51a11.76,11.76,0,0,1-2.09.57,1.29,1.29,0,0,1-1.1-.41,1.72,1.72,0,0,1,0-1.39,73,73,0,0,0,4.09-6.53A33.49,33.49,0,0,1,207.2,282.21Z"/><path class="cls-1" d="M299.1,336.27c-.91-1.37-2.44-2.34-3.71-3.47-1.43-1.27-2.88-2.53-4.42-3.79-1.23-1-2.37-1.91-3.46-2.92-.53-.49-.91-1.13-1.44-1.62-1.24-1.15-2.53-2.25-3.8-3.38a2.23,2.23,0,0,1-.43-.49,2.78,2.78,0,0,0-2.48-1.45,5.47,5.47,0,0,1-1.62-.08,13.68,13.68,0,0,0-1.9-.41c-2.57-.3-5.21.24-7.73-.46a5.13,5.13,0,0,1-1.6-1,13.5,13.5,0,0,0-4.9-1.4c-1.84-.3-3.71-.29-5.57-.43-1.21-.08-2.37,0-3.56-.09a18.87,18.87,0,0,1-4.35-1.09,8.46,8.46,0,0,0-3.21,0,21,21,0,0,0-2.54.56c-.38.09-1,.05-1.11.25a1.67,1.67,0,0,0,.13,1.25,32.26,32.26,0,0,0,1.95,3.31c.59.85,1.42,1.49,2,2.32a7.79,7.79,0,0,0,4.42,3.34,3.66,3.66,0,0,1,2.46,3.21,1.24,1.24,0,0,0,.38.83c1.39,1.09,1.73,1.52,3.56.58.9-.46,1.83-.93,2.88-.39,2.06,1,4.09,2.13,6.19,3.07a1.23,1.23,0,0,1,.73,1.67,8.23,8.23,0,0,1-1.21,2.38,55.38,55.38,0,0,1-3.95,5.25,61.68,61.68,0,0,1-5.95,6l4.6-1.62a15.65,15.65,0,0,0,1.86-.74c1.2-.6,2.5-1.15,3.66-1.76a29,29,0,0,0,3.38-2.72c1.25-1,2.54-1.75,3.85-2.63a2.83,2.83,0,0,1,1.53-.63,2.68,2.68,0,0,1,1,.28c2.73,1.13,5.38,2.44,8.1,3.59a42.14,42.14,0,0,1,4.05,1.61,5.12,5.12,0,0,0,3.06.85,31,31,0,0,0,6.56-1.07,6.78,6.78,0,0,0,3.26-2.06C301.19,339.34,300,337.59,299.1,336.27Z"/><path class="cls-1" d="M195.82,328.14a20.84,20.84,0,0,1-4.71,3.15c-1.79.8-3.48,1.81-5.27,2.79-1.78,1.18-3.49,2.33-5.23,3.43a1.54,1.54,0,0,1-2-.35c-1.28-1.31-2.47-2.7-3.79-4a1.4,1.4,0,0,0-2-.08,1.42,1.42,0,0,1-.63.33,2.46,2.46,0,0,0-1.88,1.9c-.25.66-1,1.14-1.56,1.67a12.16,12.16,0,0,0-2.11,2,11,11,0,0,0-.88,2.74c-.38,1.22-1,2.36-1,3.72.06,1,.34,1.77,1.36,2a20.33,20.33,0,0,0,2.35.24c2.14.22,4.21.59,5.69,2.38.78,1,1.6,1.85,2.35,2.82.51.66.94,1.39,1.39,2.09a16.73,16.73,0,0,0,1.31,2.12c1.29,1.51,3,2.62,3.83,4.55a.65.65,0,0,0,.6.19,28,28,0,0,1,3.19-2.21,6,6,0,0,0,2.82-6.61,5.74,5.74,0,0,1-.23-3.48c.61-1.79,1.28-3.69.31-5.65a3.54,3.54,0,0,1-.21-1.89,12,12,0,0,1,.63-2.4,20.36,20.36,0,0,1,1.76-4.38,59.15,59.15,0,0,1,4.1-4.88,5.23,5.23,0,0,0,.79-1.45,2.37,2.37,0,0,0,0-.92C196.46,328,196,328,195.82,328.14Z"/><path class="cls-1" d="M258.31,269.06a9,9,0,0,0,1,2.57c1,1.55,2.08,3,3.11,4.5.87,1.28,1.38,1.49,2.72,1,.58-.21,1.14-.48,1.7-.72a26.17,26.17,0,0,0,9.57-6.9c1.54-1.8,3-3.65,4.57-5.45,1.9-2.23,3.83-4.43,5.74-6.64.6-.7.93-1.36.07-2.16s-1.33-1.69-2.16-2.31c-1.39-1-2.72-2.35-4.69-2.08-2.6.35-5.22.58-7.77,1.16a57.44,57.44,0,0,0-6.65,2.19c-1.42.51-2.54,1.48-3.93,2-.31.12-.63.21-.94.32a4.88,4.88,0,0,0-1.22.68c.19-.15,1.21,0,1.48,0,.53,0,1.06-.07,1.58-.14a10.8,10.8,0,0,0,2.71-.7c1.87-.76,4.27-.39,6.26-.7a8.72,8.72,0,0,1,6.15,1.39c.58.36,1.25,1.09.62,1.93s-1.54,1.81-2.38,2.77c-1.12,1.2-2.15,2.39-3.28,3.48s-2.52,2.18-3.72,3.33a9.89,9.89,0,0,1-4.2,2.53c-.83.24-1.07,0-1.35-.63a6.35,6.35,0,0,1-.34-4.73c.89-2.62.26-3.77-2.42-4.49a11.84,11.84,0,0,0-4-.45,17,17,0,0,0,.68,3.92C257.6,266.22,257.94,267.64,258.31,269.06Z"/></g></svg>