<svg id="レイヤー_1" data-name="レイヤー 1" xmlns="http://www.w3.org/2000/svg" viewBox="0 0 391 476.13"><defs><style>.cls-1{fill:#fff;}.cls-2{fill:none;stroke:#fff;stroke-miterlimit:10;stroke-width:4px;}</style></defs><title>logo</title><path class="cls-1" d="M184.56,98.57c.33,8.77,1.22,19.42,2.33,28.3a24.57,24.57,0,0,1,.44,4.11c0,4.11-2.66,7.44-5.88,7.44-2.55,0-3.66-1.78-3.88-6.33a35.51,35.51,0,0,0-2.33-10.65,113.54,113.54,0,0,0-5-11.32c-1.78,2.77-3,4.55-4.44,6.88-2.22,3.77-3.44,4.88-5.33,4.88-2.33.11-3.88-2.66-3.88-6.44,0-2.77.33-3.77,3.22-6.33a120.43,120.43,0,0,0,9.32-10.88c3.66-4.77,6.33-8.32,8.88-11.65.33-3.77.67-7.66.89-11.21-3.55,1.78-6.55,3.22-9.1,4.77-3,1.89-4,2.33-5.55,2.33-4,0-8-4-8-8a5.64,5.64,0,0,1,.44-2.22c.11-.22.22-.22.44,0,1.22,1.33,2.22,1.89,3.33,1.89s3.44-.89,9.32-3.33c4-1.55,7.88-3,9.77-3.66.33-2.89.67-5,1.11-8.21a69.44,69.44,0,0,0,.89-9.32,7.76,7.76,0,0,0-4.77-7.21.23.23,0,0,1,0-.44,4.39,4.39,0,0,1,2.89-.89c5.44,0,11,5.22,11,10.32a12.49,12.49,0,0,1-1,4.55,61.05,61.05,0,0,0-2.77,9.66c3,.22,4.44,1.66,4.44,4.11,0,1.66-.55,2.66-1.78,4.55-2.33,3.33-3.44,5.33-4.44,7l-.44,3.33c6.66-5.66,11-8.77,15.43-11.21,5.66-3.22,10.76-4.66,16.2-4.66,16,0,27.52,12.54,27.52,30.07,0,20.64-16.2,33.74-42.73,35-1.44.11-2.77.11-4.22.11-.55,0-.67-.78,0-.89,9.1-1.55,16.54-4.33,22.53-8.43,9.43-6.21,14.09-15.09,14.09-26.86,0-14.32-7.55-23.86-18.53-23.86-9.1,0-20,6.55-30.41,18.31Zm-6.55.56c-2.77,3.77-4.33,6-6.77,9.54,2.77,4.55,5,7.88,7.32,12.1-.22-5.66-.55-11.65-.55-17.53Z" transform="translate(-5.04 -4.5)"/><path class="cls-1" d="M171.68,155.61a8.26,8.26,0,0,1,4.22-1.11c7.44,0,13.65,6.66,13.65,14.87,0,3.55-.56,7.32-2.66,16.87-3.33,17.31-4.77,25.52-4.77,32.18,0,11.87,6.66,18.42,18.53,18.42,16.09,0,30-10.88,37.51-29.41.22-.44.55-.33.55.11-3.66,23.75-19,39.06-38.84,39.06-16.2,0-24.86-10.21-24.86-29.41,0-5.66.33-11.43,2.11-29.08a198.82,198.82,0,0,0,1.33-20.75c0-6.55-1.78-9.54-6.77-11.32A.23.23,0,0,1,171.68,155.61Z" transform="translate(-5.04 -4.5)"/><path class="cls-1" d="M176.68,313.75a37.85,37.85,0,0,1,1.11,8.77c0,11-6.44,21-13.65,21a5.05,5.05,0,0,1-5-5.33,4.86,4.86,0,0,1,1.44-3.77,26.64,26.64,0,0,1,3.33-2,22.13,22.13,0,0,0,8.43-7.44,23.36,23.36,0,0,0,3.55-11.1C175.9,313.3,176.57,313.19,176.68,313.75ZM161.25,297a14.38,14.38,0,0,0,7,1.44c2.89,0,5.88-.22,10.21-.55,5.33-.44,11.21-1.22,17.09-1.89-.33-5.66-.55-11-1-15.76-.22-4.33-.67-4.55-3.22-5.1-1-.22-1.44-.44-1.44-.89,0-.78,1.11-2.11,2.55-3.11a6.57,6.57,0,0,1,4.11-1.55c2,0,4.55,1.11,6.88,2.55,1.77,1.33,2.77,2.77,2.77,4.22a3.46,3.46,0,0,1-1.22,2.44c-.78.67-.89,1-.89,2.33,0,3.88.22,8.55.33,14,7-.67,11.21-1.22,16.2-1.78,3.44-.44,4-.67,5.66-1.55a5,5,0,0,1,2.66-.67,16.77,16.77,0,0,1,6.44,1.67c2.77,1.44,3.88,2.88,3.88,4.88,0,2.44-1.89,4.11-4.55,4.11a17.42,17.42,0,0,1-3.11-.33,79.37,79.37,0,0,0-12-.89c-4.11,0-7.88.22-15.09.89.22,7.33.89,35.29.89,43.06,0,4.55-1.22,7.77-3.66,10.21a10.73,10.73,0,0,1-6.88,3c-2.11,0-2.44-.44-3.66-4.11-.44-1.78-1.11-2.22-3.11-3.66-3.33-2.44-5.66-4.11-10.21-7.1a.3.3,0,0,1,.22-.55c6.33,2,12,3.11,15,3.11,1.44,0,2.33-.67,2.55-3.44s.33-6.44.33-11.32c0-6.77-.11-24-.33-28.52-3.22.44-6.44.89-9.88,1.44-4,.67-8.77,1.44-12.87,2.55a20.21,20.21,0,0,1-4.44.78c-3.44,0-7.44-4.55-7.66-9.66C160.81,297,160.92,296.88,161.25,297Zm53.16,17.76c8.21,1.67,14.09,4.66,18.53,9.43,3.88,3.77,6.1,8.1,6.1,12a6.36,6.36,0,0,1-6.1,6.66c-2.66,0-4-1.33-4.55-4.77-1.11-6.33-2.66-10.76-5-14.43a22,22,0,0,0-9.21-8.1C213.63,315.19,213.86,314.64,214.41,314.75Zm32.29-41.39A10.38,10.38,0,1,1,236.38,263,10.4,10.4,0,0,1,246.7,273.35Zm-16.87,0a6.49,6.49,0,1,0,13,0,6.49,6.49,0,0,0-13,0Z" transform="translate(-5.04 -4.5)"/><circle class="cls-2" cx="195.5" cy="195.5" r="193.5"/><path class="cls-1" d="M48.62,438.5h5.2a7.74,7.74,0,0,1,2.52.37,4.83,4.83,0,0,1,2,1.33,5.19,5.19,0,0,1,1.22,2.23,13.94,13.94,0,0,1,.34,3.45,17.27,17.27,0,0,1-.19,2.74,5.76,5.76,0,0,1-.8,2.13,5.05,5.05,0,0,1-1.9,1.85,6.4,6.4,0,0,1-3.13.66H52.09v9.45H48.62ZM52.09,450h1.67a3.54,3.54,0,0,0,1.63-.31,1.94,1.94,0,0,0,.85-.83,3.23,3.23,0,0,0,.32-1.27q.05-.75.05-1.67t-.05-1.62a3.8,3.8,0,0,0-.31-1.33,2,2,0,0,0-.8-.88,3.1,3.1,0,0,0-1.56-.32h-1.8Z" transform="translate(-5.04 -4.5)"/><path class="cls-1" d="M61.95,451.25a12.78,12.78,0,0,1,.14-1.94,4.7,4.7,0,0,1,.51-1.56,4.65,4.65,0,0,1,1.77-1.8,5.91,5.91,0,0,1,5.51,0,4.65,4.65,0,0,1,1.77,1.8,4.72,4.72,0,0,1,.51,1.56,12.84,12.84,0,0,1,.14,1.94v5.68a12.83,12.83,0,0,1-.14,1.94,4.71,4.71,0,0,1-.51,1.56,4.66,4.66,0,0,1-1.77,1.8,5.92,5.92,0,0,1-5.51,0,4.58,4.58,0,0,1-2.28-3.37,12.77,12.77,0,0,1-.14-1.94Zm3.47,6.22a2.1,2.1,0,0,0,.46,1.48,1.81,1.81,0,0,0,2.48,0,2.1,2.1,0,0,0,.46-1.48v-6.77a2.1,2.1,0,0,0-.46-1.48,1.81,1.81,0,0,0-2.48,0,2.11,2.11,0,0,0-.46,1.48Z" transform="translate(-5.04 -4.5)"/><path class="cls-1" d="M87.52,462.71H84.46l-1.9-10.23h-.07l-1.9,10.23H77.52l-4.08-17.24h3.67l2.11,10.71h.07l1.94-10.71h2.72l1.84,10.71h.07l2.07-10.71H91.6Z" transform="translate(-5.04 -4.5)"/><path class="cls-1" d="M96.22,455.4v2.35a1.66,1.66,0,0,0,.46,1.26,1.71,1.71,0,0,0,1.24.44,1.37,1.37,0,0,0,1.31-.58,3.13,3.13,0,0,0,.39-1.16h3.47a5.77,5.77,0,0,1-.36,2,4.52,4.52,0,0,1-1,1.63,4.87,4.87,0,0,1-1.63,1.12,5.88,5.88,0,0,1-4.9-.27,4.58,4.58,0,0,1-2.28-3.37,12.77,12.77,0,0,1-.14-1.94v-5.68a12.78,12.78,0,0,1,.14-1.94,4.7,4.7,0,0,1,.51-1.56,4.65,4.65,0,0,1,1.77-1.8,5.34,5.34,0,0,1,2.75-.68,5.52,5.52,0,0,1,2.16.41,4.56,4.56,0,0,1,1.63,1.14,5.12,5.12,0,0,1,1,1.72,6.15,6.15,0,0,1,.36,2.11v4.76Zm0-2.72h3.4v-2a2.1,2.1,0,0,0-.46-1.48,1.81,1.81,0,0,0-2.48,0,2.11,2.11,0,0,0-.46,1.48Z" transform="translate(-5.04 -4.5)"/><path class="cls-1" d="M105.64,445.47h3.47v1.84a10.57,10.57,0,0,1,2.07-1.5,5.3,5.3,0,0,1,2.52-.54v3.67a2.8,2.8,0,0,0-1.05-.2,4.15,4.15,0,0,0-1.17.19,3.22,3.22,0,0,0-1.16.63,3.38,3.38,0,0,0-.87,1.16,4.1,4.1,0,0,0-.34,1.77v10.23h-3.47Z" transform="translate(-5.04 -4.5)"/><path class="cls-1" d="M118.25,455.4v2.35a1.66,1.66,0,0,0,.46,1.26,1.71,1.71,0,0,0,1.24.44,1.37,1.37,0,0,0,1.31-.58,3.13,3.13,0,0,0,.39-1.16h3.47a5.77,5.77,0,0,1-.36,2,4.52,4.52,0,0,1-1,1.63,4.87,4.87,0,0,1-1.63,1.12,5.88,5.88,0,0,1-4.9-.27,4.58,4.58,0,0,1-2.28-3.37,12.77,12.77,0,0,1-.14-1.94v-5.68a12.78,12.78,0,0,1,.14-1.94,4.7,4.7,0,0,1,.51-1.56,4.65,4.65,0,0,1,1.77-1.8,5.34,5.34,0,0,1,2.75-.68,5.52,5.52,0,0,1,2.16.41,4.56,4.56,0,0,1,1.63,1.14,5.12,5.12,0,0,1,1,1.72,6.15,6.15,0,0,1,.36,2.11v4.76Zm0-2.72h3.4v-2a2.1,2.1,0,0,0-.46-1.48,1.81,1.81,0,0,0-2.48,0,2.11,2.11,0,0,0-.46,1.48Z" transform="translate(-5.04 -4.5)"/><path class="cls-1" d="M134.57,461.14l-.65.7a3.56,3.56,0,0,1-.68.56,3.24,3.24,0,0,1-.85.37,4.14,4.14,0,0,1-1.12.14,3.16,3.16,0,0,1-3-1.63,4.6,4.6,0,0,1-.44-1.43,15,15,0,0,1-.14-2.28V451a26.66,26.66,0,0,1,.1-2.75,3.42,3.42,0,0,1,.44-1.43,3.71,3.71,0,0,1,1.14-1.12,3.65,3.65,0,0,1,2-.44,3.59,3.59,0,0,1,1.82.46A4.21,4.21,0,0,1,134.5,447h.07V438.5H138v24.21h-3.47Zm-3.43-4a3.14,3.14,0,0,0,.41,1.7,1.42,1.42,0,0,0,1.29.65,1.53,1.53,0,0,0,1.26-.6,2.4,2.4,0,0,0,.48-1.55v-6.7a1.89,1.89,0,0,0-.49-1.34,1.63,1.63,0,0,0-1.24-.53,1.42,1.42,0,0,0-1.34.61,2.79,2.79,0,0,0-.36,1.43Z" transform="translate(-5.04 -4.5)"/><path class="cls-1" d="M147.22,438.5h3.47V447h.07a4.2,4.2,0,0,1,1.38-1.31,3.59,3.59,0,0,1,1.82-.46,3.65,3.65,0,0,1,2,.44,3.73,3.73,0,0,1,1.14,1.12,3.42,3.42,0,0,1,.44,1.43,26.49,26.49,0,0,1,.1,2.75v6.56a15.11,15.11,0,0,1-.14,2.28,4.63,4.63,0,0,1-.44,1.43,3.16,3.16,0,0,1-3,1.63,3.25,3.25,0,0,1-2-.51,8.53,8.53,0,0,1-1.33-1.26v1.56h-3.47Zm6.9,12.27a2.79,2.79,0,0,0-.36-1.43,1.42,1.42,0,0,0-1.34-.61,1.63,1.63,0,0,0-1.24.53,1.89,1.89,0,0,0-.49,1.34v6.7a2.4,2.4,0,0,0,.48,1.55,1.53,1.53,0,0,0,1.26.6,1.42,1.42,0,0,0,1.29-.65,3.14,3.14,0,0,0,.41-1.7Z" transform="translate(-5.04 -4.5)"/><path class="cls-1" d="M162.66,445.47,165,456.21h.07l2.35-10.74H171l-5,20.23a6.14,6.14,0,0,1-.77,1.92,4.39,4.39,0,0,1-1.14,1.22,4.13,4.13,0,0,1-1.38.65,6.11,6.11,0,0,1-1.51.19h-1v-3.26h.78a2.61,2.61,0,0,0,.88-.14,1.36,1.36,0,0,0,.66-.6,5.08,5.08,0,0,0,.53-1.36q.24-.9.54-2.4L159,445.47Z" transform="translate(-5.04 -4.5)"/><path class="cls-1" d="M271.68,448.65c-2.36-.53-3.22.53-3.35,1.12s1.51.46,2.17,1.58-1.18,5.19-2.17,7.16-4.6,5.06-4.6,5.06,2-7.42,2.76-10.64-1.2-4-3.41-3.81c-3,.33-3.69,1.07-4.68,2.05s-2.35,3.07-1.82,4.06,1.64.52,2-.33.92-2.3,1.58-1.84,0,2.43-.59,6.24-1.8,9.24-1.8,9.44a40.37,40.37,0,0,1-6.08,4.6c-3.09,2-11.1,6.06-12.48,6.13s-1.49-.61-1.36-1.79a1.63,1.63,0,0,0-1.31-2,2.18,2.18,0,0,0-2.23,1.12c-.39.72-1,3.94,5.12,3.81,2.29,0,6.44-2.15,9.54-3.77a69.37,69.37,0,0,0,13.51-9.36c6.3-5.51,9.72-12.54,10.11-14.18S274,449.18,271.68,448.65Z" transform="translate(-5.04 -4.5)"/><path class="cls-1" d="M339.24,408.48c-15,0-24.78,2-41,9.2C279.07,426.27,256.79,448,256.79,448s-1.06-2-.57-10.1c.41-6.81,3-20.09,3-20.09s-16.44,28.76-26.29,38c-13,12.2-16.83,13.28-22.34,15.74-9.06,4-18.92,4.42-22.07,1.3-2.46-2.44-2.05-6.25-.39-9.88,7-15.23,28.76-24.69,28.76-24.69s-14.4,6.05-21.17,11.52c-8.17,6.6-11.16,12.07-12.45,15.57-1.08,3-1.44,10.33,5.18,12.72,11.15,4,27.37-6.8,34.84-11.94,8.86-6.11,22.85-22.56,22.85-22.56l-.3,25.22s5.32-11,11.63-18c5.57-6.17,23.48-23.1,41.59-30.45,12.24-5,24.23-7.39,33.64-7.38,15.26,0,24.31,3.35,26.52,9.36,2,5.54-1.36,11.21-6.89,16a203.22,203.22,0,0,1-18.38,13.59s-1-3.07-6-3.05a14,14,0,0,0-6.76,1.48c-2.62,1.25-10.21,6.91-12.67,8.38s-.24-1.51,1.77-5c2.39-4.11.31-5.81-3.51-5.78-3.35,0-4.48,1.58-4.48,1.58l5.65-9.15a37.83,37.83,0,0,0,5.52-5.62c2.86-3.55,4.43-6.7,2.56-7.19s-6.2,4.53-8.27,6.77a97.15,97.15,0,0,0-6.11,8.39l-11.08,8.62s-.71-2.48-4.33-2.61c-4.63-.17-9.29,1.14-13.25,7.09-3.8,5.71-.69,9.37,3.05,9.45,4.53.1,9.54-1.28,12.86-6.38,2.65-4.07,1.92-6.58,1.92-6.58L300,445l-12.9,20.12h5.58a62.07,62.07,0,0,1,3.78-6.42c2.46-3.86,4.48-6.12,7.24-6.12s-.06,3-1.63,5.61c-2.36,3.94-4.14,6.92-1.77,6.92s3.52-.84,6.15-2.81S318,452.94,318,452.94a11.54,11.54,0,0,0-3.37,4.27c-2.22,4.38.15,8,4.28,8s8.86-.59,12.84-5.94c3.16-4.24,2.36-6.7,2.36-6.7s28.63-15.23,29.68-26.79C364.79,415.15,354.21,408.48,339.24,408.48Zm-27.9,26.1c.95-1.05,2.27-2.86,2.61-2.58s-.64,1.61-1.8,3.1a32.3,32.3,0,0,1-3.87,4A49.33,49.33,0,0,1,311.34,434.58Zm-27.26,22.48c-1.85,2.85-4.75,5.17-6.46,5.17s-1.6-2.32.26-5.17,4.75-5.17,6.46-5.17S285.94,454.2,284.08,457.06Zm42.65,0c-1.85,2.85-4.75,5.17-6.46,5.17s-1.6-2.32.26-5.17,4.75-5.17,6.46-5.17S328.59,454.2,326.73,457.06Z" transform="translate(-5.04 -4.5)"/></svg>